<svg width="21" height="25" viewBox="0 0 21 25" fill="none" xmlns="http://www.w3.org/2000/svg">
<g id="Page-1">
<g id="Dribbble-Light-Preview">
<g id="icons">
<path id="apple-[#173]" fill-rule="evenodd" clip-rule="evenodd" d="M14.2935 3.94414C15.1941 2.90032 15.8011 1.4465 15.635 0C14.3372 0.0494118 12.767 0.829064 11.8364 1.87164C11.0008 2.79686 10.2713 4.27523 10.4674 5.69333C11.9151 5.80079 13.3928 4.98917 14.2935 3.94414ZM17.5399 13.125C17.5761 16.8642 20.9625 18.108 21 18.1241C20.9725 18.2118 20.4591 19.8964 19.2162 21.6382C18.1408 23.1427 17.0253 24.6412 15.2678 24.6733C13.5415 24.7042 12.9856 23.6926 11.0107 23.6926C9.03713 23.6926 8.42006 24.6411 6.78621 24.7041C5.0899 24.7646 3.79705 23.0763 2.71406 21.5766C0.498114 18.5094 -1.19445 12.9089 1.07896 9.12899C2.20817 7.25261 4.2255 6.06256 6.41647 6.03292C8.08155 6.00203 9.6542 7.10656 10.6722 7.10656C11.6903 7.10656 13.6014 5.77863 15.61 5.97381C16.4507 6.00716 18.8115 6.29858 20.3267 8.42449C20.2043 8.49737 17.5099 9.99976 17.5399 13.125Z" fill="black"/>
</g>
</g>
</g>
</svg>
