<svg width="10" height="10" viewBox="0 0 10 10" fill="none" xmlns="http://www.w3.org/2000/svg">
<g id="Vector">
<path d="M1.61348 9.09888C1.38839 9.11196 1.16702 9.03713 0.996049 8.89017C0.658869 8.55098 0.658869 8.00317 0.996049 7.66398L8.37919 0.280811C8.72989 -0.047348 9.28019 -0.0291058 9.60835 0.321591C9.9051 0.638725 9.92239 1.12617 9.64885 1.46352L2.2222 8.89017C2.05344 9.03501 1.83562 9.1097 1.61348 9.09888Z" fill="#00C6FF"/>
<path d="M8.98794 9.09888C8.75982 9.0979 8.54117 9.00735 8.37919 8.84669L0.996021 1.46349C0.683641 1.0987 0.72611 0.549719 1.0909 0.237311C1.41648 -0.0415059 1.89665 -0.0415059 2.2222 0.237311L9.64885 7.62048C9.99946 7.94873 10.0176 8.49906 9.68934 8.84967C9.67628 8.86362 9.66279 8.87711 9.64885 8.89017C9.467 9.0483 9.22767 9.12388 8.98794 9.09888Z" fill="#00C6FF"/>
</g>
</svg>
