<svg width="137" height="87" viewBox="0 0 137 87" fill="none" xmlns="http://www.w3.org/2000/svg">
<g id="Frame" clip-path="url(#clip0_43_4755)">
<g id="Group">
<path id="Vector" d="M11.3279 86.8435C11.3279 86.8435 -5.29904 70.8196 5.279 51.9672C15.857 33.1148 30.0637 42.5956 29.3762 20.6533C28.6888 -1.28899 62.0495 -3.17444 72.6683 3.1881C83.287 9.55064 83.2236 17.2132 105.145 14.6777C127.067 12.1423 131.254 33.2771 125.551 44.0484C117.459 59.331 148.009 56.8102 128.759 86.843H11.3279V86.8435Z" fill="#EBF3FA"/>
<g id="Group_2">
<path id="Vector_2" opacity="0.3" d="M84.3438 49.1385C84.3438 49.1385 87.8766 34.2707 99.7952 32.6362C99.7952 32.6362 102.114 32.3532 102.886 34.8887C103.658 37.4241 99.0475 37.4425 96.1978 38.4621C93.3476 39.4818 86.7038 43.805 84.3438 49.1385Z" fill="#AEC3FF"/>
<path id="Vector_3" opacity="0.3" d="M84.0726 46.356C84.0726 46.356 82.8337 34.0405 91.5308 29.67C91.5308 29.67 93.2324 28.8467 94.4968 30.5872C95.7611 32.3278 92.2335 33.548 90.3209 35.0748C88.4082 36.6016 84.465 41.6521 84.0726 46.356Z" fill="#AEC3FF"/>
</g>
<path id="Vector_4" d="M136.842 86.9996H0.15811C0.0713875 86.9996 0 86.9293 0 86.8426V86.7828C0 86.6967 0.0708587 86.6258 0.15811 86.6258H136.842C136.929 86.6258 137.001 86.6961 137.001 86.7828V86.8426C137 86.9287 136.929 86.9996 136.842 86.9996Z" fill="#2E3552"/>
<path id="Vector_5" d="M19.7662 75.662C17.926 71.4989 24.6005 67.9222 24.6005 67.9222C24.6005 67.9222 33.3954 70.7486 34.6582 69.9736C35.921 69.1986 27.6136 66.0993 27.6136 66.0993C29.6632 64.1078 37.5227 62.2832 37.5227 62.2832C37.5227 62.2832 42.8239 69.5473 43.8561 68.4872C44.8878 67.4271 38.8314 62.2932 38.8314 62.2932C41.5024 61.2137 45.5313 62.1 45.5313 62.1C51.3327 64.1508 48.381 71.4422 48.381 71.4422C48.381 71.4422 50.273 73.9204 54.0312 75.4924C54.0312 75.4924 54.7868 75.7334 55.8391 76.3283L55.2527 76.7971C55.0782 76.6795 54.9026 76.5708 54.7271 76.4726C54.726 76.4716 54.725 76.4711 54.7239 76.4711C54.7212 76.4695 54.7186 76.4684 54.716 76.4669C54.6028 76.4091 54.441 76.3272 54.2427 76.2285C54.2427 76.2285 54.2422 76.2285 54.2422 76.228C54.2416 76.2274 54.2416 76.228 54.2411 76.2274C53.7795 76.0227 53.4495 75.862 53.2226 75.7376C53.2221 75.7371 53.2211 75.737 53.2205 75.7365C51.797 75.0729 49.868 74.2669 49.1097 74.3803C49.1097 74.3803 49.1012 74.238 49.0187 74.0128C49.0478 74.1299 49.0779 74.2522 49.1097 74.3803C49.8383 77.319 45.1077 81.689 41.8493 83.356C38.5908 85.0231 39.1746 83.2647 39.649 80.7896C40.1238 78.3145 43.5504 76.1261 44.0782 74.8823C44.6059 73.6384 42.8392 74.2296 41.0905 75.8631C39.3417 77.4965 39.9113 80.0929 37.1303 82.7864C34.3499 85.4798 27.4925 81.69 27.4925 81.69C30.0915 80.6678 32.8962 76.5467 32.4621 75.7203C32.028 74.8938 26.5644 79.3804 25.5306 79.855C24.4984 80.3291 21.6064 79.8251 19.7662 75.662Z" fill="#CDE0FB"/>
<path id="Vector_6" d="M103.8 80.6673C106.484 77.5228 101.617 72.6987 101.617 72.6987C101.617 72.6987 93.2367 72.8945 92.3409 71.8964C91.4457 70.8983 99.4728 70.3396 99.4728 70.3396C98.2106 68.0824 91.8566 64.4764 91.8566 64.4764C91.8566 64.4764 85.3561 69.4266 84.7353 68.24C84.115 67.0539 90.7165 64.1488 90.7165 64.1488C88.6769 62.5243 84.9441 62.2586 84.9441 62.2586C79.3674 62.55 80.0321 69.645 80.0321 69.645C80.0321 69.645 77.7419 71.312 74.0663 71.7126C74.0663 71.7126 73.3466 71.7279 72.2773 71.9746L72.665 72.5328C72.8474 72.475 73.0282 72.4256 73.2064 72.3857C73.2075 72.3852 73.2086 72.3847 73.2096 72.3852C73.2123 72.3847 73.2149 72.3842 73.2175 72.3836C73.3312 72.3626 73.4925 72.3327 73.6908 72.2981H73.6913C73.6919 72.2981 73.6919 72.2981 73.6924 72.2981C74.1472 72.2387 74.4756 72.1841 74.7056 72.1342C74.7061 72.1342 74.7072 72.1337 74.7077 72.1337C76.118 71.9226 78.0042 71.7179 78.6335 72.0119C78.6335 72.0119 78.6784 71.8901 78.8085 71.7158C78.753 71.8103 78.6943 71.9085 78.6335 72.0119C77.2343 74.3783 80.2056 79.392 82.6031 81.678C85.0002 83.9641 84.9515 82.2861 85.1842 80.0131C85.4169 77.7402 83.0093 74.9579 82.875 73.7409C82.7406 72.5244 84.1219 73.492 85.2154 75.3612C86.3095 77.2298 85.1377 79.34 86.852 82.3953C88.5664 85.4505 95.5132 83.9195 95.5132 83.9195C93.5207 82.3632 92.158 78.061 92.7507 77.454C93.3435 76.8471 96.9219 82.1506 97.6966 82.8284C98.4707 83.5073 101.116 83.8118 103.8 80.6673Z" fill="#CDE0FB"/>
<path id="Vector_7" opacity="0.5" d="M37.0199 19.7494C39.7866 15.14 47.8243 19.0547 47.8243 19.0547C47.8243 19.0547 51.1192 29.3829 52.7352 30.0566C54.3512 30.7297 51.6549 20.6797 51.6549 20.6797C54.9868 21.2699 62.1415 27.5164 62.1415 27.5164C62.1415 27.5164 58.7471 37.5543 60.48 37.8121C62.2128 38.0699 63.0288 28.7718 63.0288 28.7718C65.9049 30.5795 67.8096 35.0309 67.8096 35.0309C69.8027 41.972 60.7232 44.1547 60.7232 44.1547C60.7232 44.1547 59.6223 47.6588 60.6777 52.3218C60.6777 52.3218 60.9628 53.2081 61.1082 54.6199L60.2521 54.3821C60.2463 54.1348 60.2314 53.8933 60.2055 53.658C60.2061 53.6565 60.2055 53.6554 60.205 53.6538C60.2045 53.6507 60.204 53.647 60.204 53.6439C60.1823 53.4963 60.1505 53.2858 60.1098 53.029C60.1098 53.0285 60.1098 53.0285 60.1098 53.028C60.1098 53.0275 60.1093 53.0275 60.1098 53.0269C59.9919 52.4457 59.921 52.0215 59.8856 51.719C59.8856 51.718 59.8856 51.7169 59.8856 51.7164C59.5519 49.9029 59.0094 47.5102 58.3791 46.865C58.3791 46.865 58.5113 46.7589 58.672 46.5263C58.5784 46.6345 58.4811 46.7468 58.3791 46.865C56.0349 49.5753 48.563 48.0584 44.7155 46.0926C40.8685 44.1268 42.97 43.4784 45.6906 42.234C48.4113 40.9897 52.878 42.7586 54.4438 42.4094C56.0095 42.0602 54.2259 40.7802 51.4466 40.2315C48.6672 39.6828 46.5446 42.0067 42.0324 41.2007C37.5196 40.3948 36.4853 31.2547 36.4853 31.2547C39.2567 33.0336 45.1671 32.8834 45.6695 31.9027C46.1718 30.9219 38.0839 28.786 36.9163 28.1249C35.7482 27.4639 34.2533 24.3593 37.0199 19.7494Z" fill="#CDE0FB"/>
<g id="Group_3">
<g id="Group_4">
<path id="Vector_8" d="M67.9141 28.1859C67.9141 27.8882 67.9675 27.6125 68.0748 27.36C68.1816 27.1074 68.3334 26.8885 68.5291 26.7031C68.7247 26.5183 68.9595 26.3739 69.2345 26.27C69.5089 26.1665 69.8188 26.114 70.1636 26.114C70.5078 26.114 70.8203 26.166 71.0995 26.27C71.3787 26.3739 71.6167 26.5183 71.8118 26.7031C72.0075 26.8885 72.1587 27.1074 72.2661 27.36C72.3729 27.6125 72.4268 27.8882 72.4268 28.1859C72.4268 28.4836 72.3734 28.7571 72.2661 29.005C72.1587 29.2533 72.0075 29.4701 71.8118 29.655C71.6162 29.8403 71.3787 29.9847 71.0995 30.0881C70.8203 30.1916 70.5078 30.2441 70.1636 30.2441C69.8188 30.2441 69.5089 30.1921 69.2345 30.0881C68.9595 29.9842 68.7247 29.8398 68.5291 29.655C68.3334 29.4701 68.1822 29.2533 68.0748 29.005C67.9675 28.7566 67.9141 28.4836 67.9141 28.1859ZM71.8398 24.3325H68.4867L68.0119 12.9568H72.3147L71.8398 24.3325Z" fill="#F78248"/>
</g>
</g>
<g id="Group_5">
<g id="Group_6">
<path id="Vector_9" d="M57.7891 17.0663C57.7891 16.8379 57.8303 16.6263 57.9123 16.4326C57.9942 16.2388 58.1106 16.0708 58.2607 15.9285C58.4109 15.7868 58.5912 15.676 58.8022 15.5962C59.0132 15.5169 59.2506 15.4765 59.515 15.4765C59.7794 15.4765 60.019 15.5164 60.2337 15.5962C60.4484 15.676 60.6303 15.7868 60.7805 15.9285C60.9306 16.0708 61.0464 16.2388 61.1289 16.4326C61.2109 16.6268 61.2521 16.8379 61.2521 17.0663C61.2521 17.2947 61.2109 17.5047 61.1289 17.6948C61.0464 17.8854 60.9306 18.0518 60.7805 18.1936C60.6303 18.3359 60.4478 18.4467 60.2337 18.5259C60.019 18.6052 59.7794 18.6456 59.515 18.6456C59.2506 18.6456 59.0127 18.6057 58.8022 18.5259C58.5912 18.4461 58.4109 18.3353 58.2607 18.1936C58.1106 18.0518 57.9942 17.8854 57.9123 17.6948C57.8303 17.5047 57.7891 17.2952 57.7891 17.0663ZM60.8021 14.1092H58.2285L57.8641 5.37872H61.1665L60.8021 14.1092Z" fill="#AEC3FF"/>
</g>
</g>
<g id="Group_7">
<g id="Group_8">
<path id="Vector_10" d="M107.777 31.8173C107.777 31.5889 107.819 31.3773 107.901 31.1835C107.983 30.9898 108.099 30.8218 108.249 30.6795C108.399 30.5377 108.58 30.4269 108.791 30.3471C109.002 30.2679 109.239 30.2274 109.503 30.2274C109.768 30.2274 110.007 30.2673 110.221 30.3471C110.436 30.4269 110.618 30.5377 110.768 30.6795C110.918 30.8218 111.034 30.9898 111.117 31.1835C111.199 31.3778 111.24 31.5889 111.24 31.8173C111.24 32.0457 111.199 32.2557 111.117 32.4458C111.034 32.6364 110.918 32.8028 110.768 32.9446C110.618 33.0868 110.436 33.1976 110.221 33.2769C110.007 33.3567 109.767 33.3966 109.503 33.3966C109.239 33.3966 109.001 33.3567 108.791 33.2769C108.58 33.1971 108.399 33.0863 108.249 32.9446C108.099 32.8028 107.983 32.6364 107.901 32.4458C107.818 32.2557 107.777 32.0462 107.777 31.8173ZM110.79 28.8602H108.217L107.852 20.1297H111.155L110.79 28.8602Z" fill="#AEC3FF"/>
</g>
</g>
<g id="Group_9">
<g id="Group_10">
<path id="Vector_11" d="M102.119 54.0356C101.581 55.0264 100.911 56.0266 100.224 56.8409V56.8415C99.5051 57.6941 98.769 58.342 98.1477 58.5615L98.1429 58.5631C98.1107 58.5741 98.0784 58.5846 98.0467 58.593C98.0451 58.5941 98.0435 58.5941 98.042 58.5941C98.0414 58.5946 98.0414 58.5946 98.0414 58.5946C97.915 58.6298 97.795 58.6461 97.6803 58.6408C95.6412 58.55 93.4922 54.2073 93.4922 54.2073C93.4922 54.2073 93.5482 53.6922 93.9448 53.3289C94.2907 53.0118 94.5572 52.9288 94.5572 52.9288C94.5572 52.9288 96.7533 55.1676 97.2895 55.3288C97.6268 55.4296 98.0705 53.866 98.7061 51.9029C99.3423 49.9392 101.575 49.4551 101.575 49.4551C101.575 49.4551 103.836 50.8748 102.119 54.0356Z" fill="#AEC3FF"/>
<path id="Vector_12" d="M100.222 56.8411C99.5028 57.6943 98.7667 58.3422 98.1454 58.5617L98.1406 58.5633L98.0443 58.5932L98.0391 58.5948C98.0391 58.5948 98.0391 58.5948 98.0396 58.5942C98.0618 58.5795 98.727 58.2372 98.8312 57.6014C98.938 56.9519 98.2458 56.4205 99.985 55.4161C100.998 54.8312 100.222 56.8411 100.222 56.8411Z" fill="#94B0ED"/>
<path id="Vector_13" d="M98.6328 86.6267H103.412C103.754 86.3962 103.319 84.1422 103.319 84.1422C103.319 84.1422 102.014 83.6507 101.79 84.6499C101.564 85.6485 100.128 85.9662 99.3689 86.088C98.8491 86.172 98.6846 86.4555 98.6328 86.6267Z" fill="#24406D"/>
<path id="Vector_14" d="M105.919 63.2627C105.919 63.2627 105.769 66.0307 105.58 69.2383C105.444 71.538 105.29 74.064 105.158 75.9557C105.14 76.2067 105.122 76.4467 105.106 76.6735C105.101 76.7438 105.096 76.8137 105.091 76.8835C104.749 81.1254 103.604 84.8416 103.604 84.8416C102.261 85.1231 101.654 84.6085 101.654 84.6085C101.654 84.6085 100.728 73.8356 100.385 69.4908C100.133 66.2922 99.918 61.6356 99.918 61.6356L105.919 63.2627Z" fill="#FF9E55"/>
<path id="Vector_15" d="M105.58 69.2379C105.444 71.5376 105.29 74.0636 105.157 75.9554C104.279 73.8982 102.484 65.8797 102.484 65.8797L105.58 69.2379Z" fill="#ED7D2B"/>
<path id="Vector_16" d="M105.719 86.6267H110.497C110.84 86.3962 110.405 84.1422 110.405 84.1422C110.405 84.1422 109.101 83.6507 108.876 84.6499C108.65 85.6485 107.214 85.9662 106.455 86.088C105.935 86.172 105.771 86.4555 105.719 86.6267Z" fill="#24406D"/>
<path id="Vector_17" d="M101.219 62.7125C101.219 62.7125 104.632 71.1468 105.723 74.3439C106.5 76.621 108.691 84.6107 108.691 84.6107C108.691 84.6107 109.644 84.8984 110.445 84.3418C110.445 84.3418 111.261 76.1794 109.613 73.8781C108.74 72.6569 109.396 61.1851 105.854 61.0869C102.311 60.9882 101.219 62.7125 101.219 62.7125Z" fill="#FF9E55"/>
<path id="Vector_18" d="M108.206 59.9999C108.192 61.1991 108.178 62.0796 108.182 62.3022C108.191 63.0279 107.724 63.1917 107.242 63.3025C107.242 63.3025 106.797 63.3975 106.235 63.492C105.685 63.5834 105.022 63.6737 104.553 63.6705C102.157 63.6516 100.152 62.9512 100.152 62.9512C99.7012 62.9512 99.496 62.2587 99.422 61.2921C99.3718 60.6378 99.5754 54.112 99.6007 52.4823C99.6182 51.3135 100.264 50.2335 100.445 50.076C102.118 48.6069 107.056 48.7922 107.944 49.8056C108.164 50.056 108.228 52.4723 108.235 55.1185C108.24 56.8223 108.222 58.6211 108.206 59.9999Z" fill="#AEC3FF"/>
<path id="Vector_19" d="M105.241 49.2233C104.61 49.9017 102.493 49.8009 102.556 49.2091C102.565 49.1362 102.578 48.703 102.585 48.6358C102.59 48.5817 102.596 48.5292 102.6 48.4793C102.614 48.3334 102.626 48.2047 102.635 48.0929C102.663 47.7684 102.673 47.5925 102.673 47.5925C102.673 47.5925 102.674 47.5925 102.675 47.5925C102.736 47.5757 104.097 47.1919 104.774 47.0328C105.001 46.9793 105.152 46.9514 105.149 46.9709C104.942 48.4809 105.447 49.0007 105.241 49.2233Z" fill="#FFB27D"/>
<path id="Vector_20" d="M104.843 47.4783C104.843 47.4783 104.275 48.0516 102.633 48.0931C102.661 47.7686 102.67 47.5927 102.67 47.5927C102.67 47.5927 102.671 47.5927 102.672 47.5927C102.733 47.5759 104.094 47.1921 104.771 47.033C104.89 47.0813 104.732 47.3969 104.843 47.4783Z" fill="#ED975D"/>
<path id="Vector_21" d="M102.256 47.5125C102.256 47.5125 102.672 47.6606 103.202 47.7315C103.977 47.8354 104.996 47.774 105.316 46.8431C105.855 45.2758 106.544 44.3365 104.958 43.6965C104.108 43.3541 103.565 43.3357 103.196 43.4665C102.875 43.5794 102.686 43.8046 102.543 44.0278C102.235 44.5071 101.615 47.2379 102.256 47.5125Z" fill="#FFB27D"/>
<path id="Vector_22" d="M102.661 42.8148C102.094 43.1844 102.279 44.0508 102.947 44.1673C103.347 44.2372 103.683 44.2513 103.877 44.3369C104.272 44.5112 104.611 44.6955 104.517 45.3035C104.486 45.5104 104.384 45.7619 104.92 45.6369C105.008 45.6165 105.072 45.6228 105.115 45.6485C105.337 45.7792 105.053 46.414 104.967 46.5516C104.967 46.5516 104.844 47.0063 105.118 47.2278C105.151 47.2541 105.688 47.4877 106.984 45.5193C107.187 45.2106 107.382 44.5144 107.067 43.8439C106.753 43.1739 105.877 42.326 104.227 42.326C103.798 42.3255 103.152 42.4945 102.661 42.8148Z" fill="#233862"/>
<path id="Vector_23" d="M108.204 60C107.963 61.1126 108.024 61.1242 107.655 60.8322C106.148 59.643 106.588 59.0198 106.923 57.9891C107.258 56.9584 106.082 55.3465 106.923 54.6592C107.745 53.9877 108.213 55.0704 108.234 55.1187C108.238 56.8224 108.221 58.6213 108.204 60Z" fill="#94B0ED"/>
<path id="Vector_24" d="M108.169 59.8563C108.169 59.8563 107.601 60.7788 107.229 60.7462C106.856 60.7137 106.354 60.5756 106.064 60.8507C105.773 61.1258 105.306 61.8346 105.437 62.0237C105.567 62.2127 106.093 62.0452 106.47 61.8383C106.848 61.6315 107.442 61.9402 107.76 61.7055C108.076 61.4708 108.835 60.5378 108.835 60.5378L108.169 59.8563Z" fill="#FFB27D"/>
<path id="Vector_25" d="M107.942 49.8055C107.942 49.8055 112.656 54.2101 112.043 57.1399C111.764 58.4751 110.899 59.6013 108.592 61.4248C108.592 61.4248 107.5 60.6761 107.261 60.0681C107.261 60.0681 109.355 57.1399 109.274 56.6411C109.175 56.031 107.746 54.5005 107.233 54.2626C106.72 54.0248 106.767 50.3164 107.942 49.8055Z" fill="#AEC3FF"/>
<path id="Vector_26" d="M107.227 60.7464C107.227 60.7464 106.73 60.5306 106.57 60.4382C106.41 60.3458 106.446 60.4954 106.494 60.5705C106.543 60.6456 106.676 60.8126 106.871 60.8304C107.067 60.8478 107.227 60.7464 107.227 60.7464Z" fill="#FFB27D"/>
</g>
</g>
<g id="Group_11">
<path id="Vector_27" d="M24.3325 51.1749C24.1623 50.8484 28.051 49.6733 28.1124 52.8945C28.1124 52.8945 35.3976 52.7165 31.9192 48.6852C30.7151 47.2896 30.8388 46.1355 30.8748 45.0613C30.9113 43.987 30.125 40.8646 27.4281 41.1791C27.4281 41.1791 26.7222 40.894 25.8407 41.3476C23.837 42.3793 19.347 52.3626 24.3325 51.1749Z" fill="#163560"/>
<path id="Vector_28" d="M36.2422 54.1317C36.2422 54.1317 36.7165 53.4151 37.0983 53.4009C37.4806 53.3867 38.1882 53.1898 38.1316 53.3305C38.075 53.4712 37.6361 53.4849 37.5938 53.5694C37.5515 53.654 38.2447 53.78 38.443 53.7941C38.6413 53.8083 39.1083 53.7941 39.094 53.8923C39.0797 53.9905 38.2521 54.3985 37.6678 54.3423C37.084 54.2861 36.3617 54.5108 36.3617 54.5108L36.2422 54.1317Z" fill="#FFB27D"/>
<path id="Vector_29" d="M29.3828 54.364C29.3828 54.364 29.6403 54.8707 30.1083 55.4529C30.672 56.1539 31.5408 56.963 32.6317 57.1231C33.1526 57.1993 33.6624 57.0879 34.1309 56.8816C34.1319 56.8811 34.1325 56.8811 34.1325 56.8811C35.4571 56.2972 36.4533 54.9541 36.4533 54.9541C36.6871 54.3215 36.3048 53.893 36.3048 53.893C36.3048 53.893 33.6296 54.4905 33.3747 54.364C33.1198 54.2375 31.5535 50.7868 31.2711 50.2124C30.6715 48.9906 29.7197 48.6404 29.7197 48.6404L29.3828 54.364Z" fill="#AEC3FF"/>
<path id="Vector_30" d="M30.1118 55.4521C30.6755 56.153 31.5443 56.9621 32.6352 57.1223C33.1561 57.1984 33.6658 57.0871 34.1344 56.8808C34.0825 56.8876 32.7595 57.0498 32.2317 56.1131C31.694 55.1576 31.1118 53.6396 30.3127 54.1453C29.9674 54.3637 29.9828 54.9061 30.1118 55.4521Z" fill="#94B0ED"/>
<path id="Vector_31" d="M19.404 83.037C19.404 83.037 18.5876 83.7768 18.7473 84.3024C18.9064 84.8279 19.643 85.1781 19.743 85.8208C19.8424 86.4635 20.2406 86.8137 20.5991 86.8137C20.9576 86.8137 22.3077 86.8137 22.3077 86.8137C22.3077 86.8137 22.5715 86.3616 21.9343 86.2256C21.2971 86.0891 21.0571 85.3346 21.0967 84.6337C21.1364 83.9327 21.037 82.9987 21.037 82.9987L19.6832 82.6873L19.404 83.037Z" fill="#1D3356"/>
<path id="Vector_32" d="M26.3125 83.3514C26.3125 83.3514 26.019 86.4849 26.377 86.6602L30.9632 86.6508C30.9632 86.6508 30.9632 86.1252 30.2266 86.0081C29.49 85.8916 28.196 85.4631 27.9766 84.5091C27.7582 83.5556 26.3125 83.3514 26.3125 83.3514Z" fill="#1D3356"/>
<path id="Vector_33" d="M22.7842 52.2498C22.7842 52.2498 22.716 53.2064 22.7842 54.3547C22.8297 55.116 23.6049 56.1351 23.7149 56.3871C23.9909 57.0193 24.3024 57.1222 24.3024 57.1222L26.7105 57.7082L27.5571 57.914L30.2276 57.1222C30.2276 57.1222 31.4438 53.7514 30.9552 51.8544C30.4671 49.9569 29.721 48.6395 29.721 48.6395C29.721 48.6395 27.9109 47.9302 24.7053 48.46L22.7842 52.2498Z" fill="#AEC3FF"/>
<path id="Vector_34" d="M23.4883 54.665C23.5338 55.4264 23.6041 56.1347 23.7141 56.3872C23.9901 57.0194 24.3016 57.1223 24.3016 57.1223L26.7097 57.7082L27.7557 57.4032C27.7557 57.4032 24.264 56.8776 24.6511 53.8953L23.4883 54.665Z" fill="#F2CCAA"/>
<path id="Vector_35" d="M30.0597 57.6336C30.0597 57.6336 31.3823 61.7206 31.4669 63.112C31.552 64.5033 28.9392 82.8779 28.834 83.519C28.7351 84.1233 27.9789 84.5087 27.9789 84.5087C27.9789 84.5087 27.6315 84.7125 27.135 84.5733C26.4465 84.3801 26.2291 84.1491 26.2291 84.1491C26.2291 84.1491 25.2001 71.0444 25.8368 66.3631C26.4734 61.6817 26.4814 57.6336 26.4814 57.6336H30.0597Z" fill="#233862"/>
<path id="Vector_36" d="M24.4565 57.5125C24.4565 57.5125 22.4397 60.1997 22.2514 62.0164C22.0632 63.833 21.9564 70.2134 21.5561 71.9844C21.1552 73.7554 19.6836 77.163 19.6836 82.6865C19.6836 82.6865 19.8364 83.0031 20.3092 83.1716C20.4604 83.2257 20.6624 83.2777 20.8591 83.3228C21.2488 83.4116 21.6486 83.2226 21.8263 82.8671C22.8215 80.8777 25.9911 74.4616 26.1539 73.1296C26.2692 72.1871 27.2697 65.949 29.4531 62.2884C29.9771 61.4094 29.1316 57.9147 29.1316 57.9147L24.4565 57.5125Z" fill="#2B478B"/>
<path id="Vector_37" d="M30.2717 57.0037C30.2717 57.0037 29.7408 57.4206 28.6864 57.4416C27.4268 57.4668 24.3053 57.1229 24.3053 57.1229C24.3053 57.1229 24.1667 57.5078 24.172 57.9136C24.172 57.9136 27.9841 58.8682 30.1929 58.0533C30.1934 58.0533 30.4779 57.5209 30.2717 57.0037Z" fill="#233862"/>
<g id="Group_12">
<path id="Vector_38" d="M28.4102 57.8732C28.4102 57.5172 28.6682 57.2274 28.985 57.2274C29.3017 57.2274 29.5598 57.5172 29.5598 57.8732C29.5598 58.2292 29.3017 58.519 28.985 58.519C28.6682 58.5195 28.4102 58.2297 28.4102 57.8732ZM28.6011 57.8732C28.6011 58.1252 28.7734 58.33 28.9855 58.33C29.1975 58.33 29.3699 58.1252 29.3699 57.8732C29.3699 57.6211 29.1975 57.4164 28.9855 57.4164C28.7734 57.4164 28.6011 57.6217 28.6011 57.8732Z" fill="white"/>
</g>
<path id="Vector_39" d="M20.6064 58.0934L23.702 60.7695C23.9257 60.9628 24.2646 60.9397 24.4597 60.7176L28.4098 56.2137C28.6044 55.9916 28.5812 55.6545 28.3575 55.4613L25.2619 52.7851C25.0382 52.5919 24.6988 52.615 24.5042 52.8371L20.554 57.341C20.3589 57.5631 20.3827 57.8996 20.6064 58.0934Z" fill="#F78248"/>
<path id="Vector_40" d="M25.1853 57.7547C25.2292 57.7663 26.8299 57.9532 26.8299 58.2813C26.8304 58.6609 26.3608 59.1697 25.9188 59.1456C25.7395 59.1356 24.9141 58.3821 24.9141 58.3821L25.1853 57.7547Z" fill="#FFB27D"/>
<path id="Vector_41" d="M26.0048 48.286C26.1867 47.8476 26.293 47.1798 26.2904 46.3533L26.4115 46.377L28.4442 46.7765C28.4442 46.7765 28.3982 47.4118 28.3966 48.0104C28.3966 48.0151 28.3966 48.0204 28.3966 48.0251C28.3939 48.5449 28.7503 49.0663 27.9106 49.2726C27.651 49.3361 25.6225 49.207 26.0048 48.286Z" fill="#FFB27D"/>
<path id="Vector_42" d="M28.4468 46.7763C28.4468 46.7763 28.4002 47.4116 28.3992 48.0102C27.2617 47.9782 26.6605 46.948 26.4141 46.3768L28.4468 46.7763Z" fill="#E8945B"/>
<path id="Vector_43" d="M28.8251 47.3431C28.8251 47.3431 26.1335 47.3872 26.1319 45.7228C26.1298 44.0579 25.7813 42.9427 27.4999 42.844C29.2185 42.7453 29.5527 43.3801 29.6897 43.9356C29.8261 44.4916 29.5252 47.2891 28.8251 47.3431Z" fill="#FFB27D"/>
<path id="Vector_44" d="M28.7234 42.8032C28.7234 42.8032 27.9862 44.7564 26.8557 45.0451C25.7246 45.3339 25.2344 45.0331 25.2344 45.0331C25.2344 45.0331 26.1016 44.3489 26.2819 43.1544C26.2814 43.1539 28.1676 41.8733 28.7234 42.8032Z" fill="#163560"/>
<path id="Vector_45" d="M28.543 42.9626C28.543 42.9626 29.0892 43.1653 29.3145 43.5612C29.5345 43.9482 29.7217 44.4606 29.6783 45.0896C29.6783 45.0896 30.2335 43.7623 29.6095 43.0115C28.948 42.215 28.543 42.9626 28.543 42.9626Z" fill="#163560"/>
<path id="Vector_46" d="M25.1836 57.7551C25.1836 57.7551 25.567 57.6328 25.8234 57.6685C26.0799 57.7042 26.2692 57.6632 26.2692 57.7346C26.2692 57.806 25.9382 57.8391 25.8679 57.8732C25.7981 57.9079 25.1836 57.7551 25.1836 57.7551Z" fill="#FFB27D"/>
<path id="Vector_47" d="M24.7064 48.4598C24.7064 48.4598 22.7958 48.5926 22.0635 50.3605C21.3311 52.1283 19.9414 55.0959 19.9414 55.5952C19.9414 56.0945 20.7177 57.6334 24.8862 58.5187C24.8862 58.5187 25.3172 58.0682 25.2912 57.7122C25.2912 57.7122 22.689 55.4928 22.6959 55.2334C22.7091 54.743 23.1226 54.0951 25.407 51.8259C26.0289 51.2095 24.7064 48.4598 24.7064 48.4598Z" fill="#AEC3FF"/>
</g>
<g id="Group_13">
<g id="Group_14">
<path id="Vector_48" d="M78.0961 33.3973H57.4503C56.9511 33.3973 56.472 33.5942 56.1188 33.9449L41.5203 48.4399C41.167 48.7906 40.9688 49.2658 40.9688 49.7615V70.2609C40.9688 70.7566 41.167 71.2323 41.5203 71.5825L56.1193 86.078C56.4725 86.4287 56.9511 86.6256 57.4508 86.6256H78.0966C78.5958 86.6256 79.0749 86.4287 79.4276 86.078L94.0266 71.5825C94.3798 71.2317 94.5781 70.7566 94.5781 70.2609V49.762C94.5781 49.2663 94.3798 48.7906 94.0266 48.4404L79.4276 33.9444C79.0743 33.5942 78.5958 33.3973 78.0961 33.3973Z" fill="#F78248"/>
<g id="Group_15">
<path id="Vector_49" d="M76.6445 83.9615H58.9034C58.1805 83.9615 57.5015 83.6822 56.9902 83.175L44.445 70.7187C43.9342 70.2115 43.6523 69.5368 43.6523 68.8191V51.2037C43.6523 50.486 43.9337 49.8118 44.445 49.3041L56.9896 36.8484C57.501 36.3412 58.18 36.0613 58.9028 36.0613H76.6439C77.3668 36.0613 78.0463 36.3407 78.5571 36.8484L91.1018 49.3041C91.6126 49.8113 91.8944 50.486 91.8944 51.2037V68.8191C91.8944 69.5368 91.6131 70.211 91.1018 70.7187L78.5571 83.1745C78.0463 83.6822 77.3668 83.9615 76.6445 83.9615ZM58.9034 37.888C58.6723 37.888 58.4544 37.9772 58.291 38.14L45.7464 50.5963C45.583 50.7585 45.4926 50.9743 45.4926 51.2043V68.8196C45.4926 69.0491 45.5824 69.2649 45.7464 69.4276L58.291 81.8839C58.4544 82.0461 58.6717 82.1354 58.9034 82.1354H76.6445C76.8761 82.1354 77.0934 82.0461 77.2568 81.8839L89.8014 69.4282C89.9648 69.2659 90.0547 69.0501 90.0547 68.8202V51.2048C90.0547 50.9753 89.9648 50.7595 89.8014 50.5968L77.2568 38.1411C77.0934 37.9788 76.8755 37.889 76.6445 37.889H58.9034V37.888Z" fill="#FFE5D4"/>
</g>
<path id="Vector_50" d="M82.0817 60.6815L81.7206 60.3707C80.8126 59.59 79.4266 59.6892 78.6403 60.5907L76.5986 62.9319C76.3067 63.2663 75.7536 63.0616 75.7536 62.619C75.7536 62.4336 75.7436 62.2499 75.724 62.0692V47.3311C75.724 46.3629 74.9266 45.5712 73.9515 45.5712H73.8204C72.8453 45.5712 72.0478 46.3629 72.0478 47.3311V56.9238C72.0478 57.1564 71.858 57.3454 71.6232 57.3454C71.3646 57.3454 71.1547 57.1369 71.1547 56.8802V45.4725C71.1547 44.5368 70.3837 43.7713 69.4414 43.7713H69.1918C68.2495 43.7713 67.4785 44.5368 67.4785 45.4725V56.9547C67.4785 57.17 67.3024 57.3449 67.0856 57.3449C66.8096 57.3449 66.5854 57.1228 66.5854 56.8482V47.695C66.5854 46.7268 65.7879 45.935 64.8128 45.935H64.6817C63.7066 45.935 62.9092 46.7268 62.9092 47.695V56.9227C62.9092 57.1558 62.7188 57.3449 62.484 57.3449C62.226 57.3449 62.016 57.1369 62.016 56.8802V49.6608C62.016 48.6926 61.2186 47.9008 60.2435 47.9008H60.1124C59.1373 47.9008 58.3398 48.6926 58.3398 49.6608V62.3365C58.3398 62.3717 58.3414 62.4063 58.3435 62.441C58.3414 62.4998 58.3398 62.5591 58.3398 62.6184V69.5958C58.3398 72.4316 60.6766 74.7518 63.5326 74.7518H70.5598C72.3863 74.7518 74.0007 73.8025 74.9266 72.3765C75.2063 71.9459 75.5088 71.5301 75.8472 71.1426L82.3028 63.7394C83.0896 62.8384 82.9897 61.4623 82.0817 60.6815Z" fill="#FFE5D4"/>
</g>
</g>
</g>
</g>
<defs>
<clipPath id="clip0_43_4755">
<rect width="137" height="87" fill="white"/>
</clipPath>
</defs>
</svg>
