<svg width="341" height="221" viewBox="0 0 341 221" fill="none" xmlns="http://www.w3.org/2000/svg">
<g filter="url(#filter0_d_14_1264)">
<path d="M6.02063 15.1122V189.687C6.02063 193.197 8.29159 202.508 21.9174 204.799V0C8.27094 2.31225 6.02063 11.6025 6.02063 15.1122Z" fill="url(#paint0_radial_14_1264)"/>
<path d="M23.1357 175.999H260.926C301.576 175.999 334.546 143.05 334.526 102.4C334.526 61.7701 301.576 28.8205 260.926 28.8205H23.1357C6.14477 28.8205 6.02089 15.1122 6.02089 15.1122V189.687C6.00025 189.687 6.00025 175.999 23.1357 175.999Z" fill="#000048"/>
<path d="M20.4929 164.624H259.976C294.35 164.624 322.221 136.774 322.2 102.4C322.2 68.0462 294.35 40.196 259.976 40.196H20.4722C6.10322 40.196 6 28.6141 6 28.6141V176.206C6 176.206 6 164.624 20.4929 164.624Z" fill="url(#paint1_linear_14_1264)"/>
</g>
<defs>
<filter id="filter0_d_14_1264" x="0" y="0" width="340.526" height="220.799" filterUnits="userSpaceOnUse" color-interpolation-filters="sRGB">
<feFlood flood-opacity="0" result="BackgroundImageFix"/>
<feColorMatrix in="SourceAlpha" type="matrix" values="0 0 0 0 0 0 0 0 0 0 0 0 0 0 0 0 0 0 127 0" result="hardAlpha"/>
<feOffset dy="10"/>
<feGaussianBlur stdDeviation="3"/>
<feComposite in2="hardAlpha" operator="out"/>
<feColorMatrix type="matrix" values="0 0 0 0 0 0 0 0 0 0 0 0 0 0 0 0 0 0 0.25 0"/>
<feBlend mode="normal" in2="BackgroundImageFix" result="effect1_dropShadow_14_1264"/>
<feBlend mode="normal" in="SourceGraphic" in2="effect1_dropShadow_14_1264" result="shape"/>
</filter>
<radialGradient id="paint0_radial_14_1264" cx="0" cy="0" r="1" gradientUnits="userSpaceOnUse" gradientTransform="translate(13.969 102.4) rotate(90) scale(102.4 7.94836)">
<stop offset="0.06" stop-color="white" stop-opacity="0"/>
<stop offset="1" stop-color="#000048"/>
</radialGradient>
<linearGradient id="paint1_linear_14_1264" x1="176.596" y1="111.856" x2="154.301" y2="51.6746" gradientUnits="userSpaceOnUse">
<stop stop-color="#FFDC00"/>
<stop offset="1" stop-color="#FFF47D"/>
</linearGradient>
</defs>
</svg>
