<svg width="13" height="13" viewBox="0 0 13 13" fill="none" xmlns="http://www.w3.org/2000/svg">
<g id="Vector">
<path d="M6.90727 12.3135C6.75736 12.482 6.54792 12.5856 6.3231 12.6026C5.84484 12.6011 5.45748 12.2138 5.45606 11.7355L5.45604 1.29415C5.47198 0.814127 5.874 0.437904 6.35402 0.453841C6.7881 0.468258 7.14501 0.800702 7.19012 1.23267L7.19012 11.7355C7.17321 11.9573 7.07201 12.1641 6.90727 12.3135Z" fill="#00C6FF"/>
<path d="M12.1218 7.09901C11.9598 7.25963 11.7412 7.35021 11.513 7.35114L1.07163 7.35112C0.592802 7.31407 0.234642 6.89584 0.271679 6.41699C0.304747 5.98962 0.644278 5.65009 1.07163 5.61704L11.5438 5.5863C12.0238 5.57049 12.4257 5.94681 12.4416 6.42684C12.4422 6.44593 12.4422 6.46501 12.4416 6.4841C12.4248 6.72451 12.309 6.94718 12.1218 7.09901Z" fill="#00C6FF"/>
</g>
</svg>
